<svg xmlns="http://www.w3.org/2000/svg" viewBox="0 0 512 512">
  <defs>
    <linearGradient id="bg" x1="0" y1="0" x2="1" y2="1">
      <stop offset="0%" stop-color="#17174A"/>
      <stop offset="100%" stop-color="#0E0E34"/>
    </linearGradient>
    <linearGradient id="accent" x1="0" y1="0" x2="1" y2="1">
      <stop offset="0%" stop-color="#8B5CF6"/>
      <stop offset="100%" stop-color="#5B3DF5"/>
    </linearGradient>
    <filter id="shadow">
      <feDropShadow dx="0" dy="6" stdDeviation="8" flood-opacity="0.25"/>
    </filter>
  </defs>

  <rect x="20" y="20" width="472" height="472" rx="70" fill="url(#bg)"/>

  <g filter="url(#shadow)">
    <path d="M160 90h150l70 70v220c0 22-18 40-40 40H160c-22 0-40-18-40-40V130c0-22 18-40 40-40z"
          fill="#F1ECFF"/>
    <path d="M310 90v55c0 20 15 35 35 35h35z" fill="url(#accent)"/>

    <rect x="165" y="170" width="180" height="110" rx="18" fill="#DCCFFF"/>
    <circle cx="205" cy="205" r="10" fill="#7C4DFF"/>
    <path d="M175 255l45-45 35 35 40-55 50 65z" fill="url(#accent)"/>

    <text x="256" y="355" text-anchor="middle"
          font-family="Arial, sans-serif" font-size="64"
          font-weight="700" fill="url(#accent)">PDF</text>
  </g>
</svg>